<svg width="333" height="384" viewBox="0 0 333 384" fill="none" xmlns="http://www.w3.org/2000/svg">
<g filter="url(#filter0_d_137_221)">
<path d="M8.58965 125.057L8.5933 125.379L8.91332 125.412C17.1938 126.276 21.3497 126.643 29.6457 127.159L30.0355 127.184L30.0292 126.793L29.2274 76.4152C38.5985 76.7139 43.4688 76.8081 52.8373 76.8215C53.2014 93.7971 53.5685 110.776 53.9385 127.757L53.9462 128.107L54.2959 128.111C62.5777 128.195 66.7208 128.148 74.9811 127.829L75.3375 127.815L75.3282 127.459C74.3056 88.2443 73.292 49.0329 72.2874 9.82464L72.2783 9.4687L71.9222 9.47274L51.7635 9.70132L51.3986 9.70546L51.4065 10.0703C51.7641 26.4836 52.1158 42.8908 52.4615 59.2918C43.1358 59.3058 38.2901 59.2574 28.9467 59.0483L28.1722 10.3096L28.1665 9.95013L27.807 9.95421L7.64825 10.1828L7.2871 10.1869L7.29119 10.548L8.58965 125.057Z" fill="#42EFF6" stroke="black" stroke-width="0.722352"/>
<path d="M110.694 125.627L110.964 125.589L111.001 125.319C112.076 117.519 112.749 112.65 113.618 106.362C113.9 104.319 114.203 102.126 114.548 99.6351C122.993 98.5932 127.35 97.9428 135.701 96.4395C137.742 105.681 138.787 110.37 140.843 119.529L140.923 119.888L141.28 119.801C149.472 117.81 153.568 116.606 161.5 114.074L161.824 113.97L161.74 113.64C152.931 79.1471 144.413 44.5756 136.186 9.92569L136.119 9.644L135.829 9.64799L108.835 10.0198L108.531 10.024L108.484 10.3245C102.307 49.3637 96.0833 88.4128 89.8117 127.472L89.7388 127.926L90.1975 127.889C98.4187 127.223 102.523 126.772 110.694 125.627ZM116.789 81.9709C118.875 66.7866 120.96 51.6052 123.046 36.4265C126.089 50.9815 129.183 65.5107 132.327 80.0141C126.195 80.891 122.925 81.3025 116.789 81.9709Z" fill="#42EFF6" stroke="black" stroke-width="0.722352"/>
<path d="M186.576 101.206L186.577 101.206C192.51 103.866 200.149 103.645 209.42 101.081C218.694 98.5162 226.239 94.8153 231.963 89.8531C237.69 84.8884 240.547 79.5606 240.386 73.4433C240.269 68.6376 240.206 66.2163 240.082 61.4377L240.079 61.3279L240.068 60.9324L239.675 60.9787C231.816 61.9038 227.886 62.4653 220.032 63.6907L219.718 63.7396L219.726 64.0568C219.855 69.1232 219.92 71.6573 220.058 76.7134C220.067 77.9539 219.81 79.1798 219.305 80.2991C218.8 81.4194 218.06 82.4032 217.143 83.1775L217.143 83.1774L217.135 83.1852C214.833 85.2599 212.059 86.6689 209.085 87.2763L209.085 87.2761L209.075 87.2784C205.74 88.0576 203.065 87.9345 201.004 86.895L201.004 86.895L200.996 86.8912C200.028 86.4324 199.21 85.6799 198.646 84.727C198.083 83.774 197.802 82.665 197.84 81.5418L197.841 81.5305L197.84 81.5192L196.353 29.2024L196.353 29.2024L196.353 29.1943C196.29 27.9569 196.523 26.7236 197.028 25.6066C197.534 24.4899 198.297 23.5258 199.245 22.8006C201.59 21.0225 204.407 20.0673 207.297 20.0678L207.313 20.0678L207.33 20.0663C210.18 19.8011 213.042 20.4539 215.534 21.9396L215.534 21.9396L215.538 21.9419C216.497 22.4971 217.3 23.3112 217.864 24.3027C218.427 25.2944 218.731 26.4267 218.741 27.5833L218.741 27.5896C218.795 29.6405 218.835 31.188 218.875 32.7286C218.915 34.3051 218.955 35.8744 219.011 37.9688L219.021 38.3535L219.404 38.319C227.276 37.6103 231.22 37.2842 239.093 36.7445L239.438 36.7208L239.429 36.3749L239.174 26.4564L238.813 26.4648L239.174 26.4555L239.174 26.4558C239.031 20.3227 235.934 15.5137 229.902 11.8224C223.882 8.13796 216.193 6.24328 206.761 6.35024C197.33 6.45718 189.635 8.5824 183.883 13.086C178.124 17.5953 175.324 23.6218 175.541 30.7938L175.541 30.794L177.261 86.2529L177.261 86.2545C177.387 89.831 178.22 92.8995 179.777 95.4133C181.335 97.9295 183.606 99.8698 186.576 101.206Z" fill="#42EFF6" stroke="black" stroke-width="0.722352"/>
<path d="M275.247 39.5829L274.52 7.50757L274.511 7.15055L274.154 7.1546L254.013 7.38299L253.648 7.38714L253.657 7.75293L255.664 90.1968L255.673 90.592L256.066 90.5468C262.689 89.7849 269.348 89.4186 276.011 89.4495L276.383 89.4512L276.374 89.08C276.147 79.2802 276.038 74.3627 275.821 64.6161L276.134 64.2336C278.723 61.0687 280.165 59.3052 282.777 56.1687C290.099 67.8274 297.228 79.5707 304.027 91.5457L304.113 91.6974L304.286 91.7242C311.461 92.8407 318.53 94.6208 325.408 97.0438L326.256 97.3424L325.851 96.5402C316.45 77.9389 306.25 60.0648 295.248 42.4729C304.597 30.9144 313.913 19.3019 322.721 7.28517L323.144 6.70856L322.429 6.71047C313.759 6.73367 309.424 6.78283 300.766 6.88101L300.765 6.88102L300.589 6.88301L300.482 7.02227C293.788 15.7443 287.039 24.421 280.29 33.0976C278.609 35.2592 276.928 37.4207 275.247 39.5829Z" fill="#42EFF6" stroke="black" stroke-width="0.722352"/>
<path d="M8.04797 152.578L7.64692 152.54L7.65253 152.943L7.84559 166.815L7.85026 167.15L8.18522 167.17C18.7392 167.8 29.3215 168.095 39.932 168.057L40.4219 241.85L40.425 242.322L40.8798 242.196C50.4881 239.525 60.0256 237.062 69.7437 234.86L70.0253 234.796L70.025 234.508C70.0015 212.043 69.9723 189.603 69.9375 167.188C80.5096 166.599 91.0678 165.805 101.612 164.806L101.943 164.774L101.939 164.442L101.939 164.416L101.938 164.39L101.938 164.364L101.938 164.338L101.938 164.312L101.937 164.286L101.937 164.261L101.937 164.235L101.936 164.209L101.936 164.184L101.936 164.158L101.936 164.133L101.935 164.107L101.935 164.082L101.935 164.057L101.934 164.031L101.934 164.006L101.934 163.981L101.934 163.956L101.933 163.93L101.933 163.905L101.933 163.88L101.932 163.855L101.932 163.83L101.932 163.806L101.932 163.781L101.931 163.756L101.931 163.731L101.931 163.707L101.93 163.682L101.93 163.657L101.93 163.633L101.93 163.608L101.929 163.584L101.929 163.559L101.929 163.535L101.928 163.511L101.928 163.486L101.928 163.462L101.928 163.438L101.927 163.414L101.927 163.39L101.927 163.365L101.927 163.341L101.926 163.317L101.926 163.293L101.926 163.27L101.925 163.246L101.925 163.222L101.925 163.198L101.925 163.174L101.924 163.151L101.924 163.127L101.924 163.103L101.924 163.08L101.923 163.056L101.923 163.033L101.923 163.009L101.923 162.986L101.922 162.962L101.922 162.939L101.922 162.916L101.921 162.892L101.921 162.869L101.921 162.846L101.921 162.823L101.92 162.8L101.92 162.777L101.92 162.754L101.92 162.731L101.919 162.708L101.919 162.685L101.919 162.662L101.919 162.639L101.918 162.616L101.918 162.593L101.918 162.57L101.918 162.548L101.917 162.525L101.917 162.502L101.917 162.48L101.917 162.457L101.916 162.435L101.916 162.412L101.916 162.39L101.915 162.367L101.915 162.345L101.915 162.322L101.915 162.3L101.914 162.278L101.914 162.256L101.914 162.233L101.914 162.211L101.913 162.189L101.913 162.167L101.913 162.145L101.913 162.123L101.912 162.101L101.912 162.079L101.912 162.057L101.912 162.035L101.911 162.013L101.911 161.991L101.911 161.969L101.911 161.947L101.91 161.925L101.91 161.903L101.91 161.882L101.91 161.86L101.909 161.838L101.909 161.817L101.909 161.795L101.909 161.773L101.909 161.752L101.908 161.73L101.908 161.709L101.908 161.687L101.908 161.666L101.907 161.644L101.907 161.623L101.907 161.602L101.907 161.58L101.906 161.559L101.906 161.538L101.906 161.516L101.906 161.495L101.905 161.474L101.905 161.453L101.905 161.432L101.905 161.41L101.904 161.389L101.904 161.368L101.904 161.347L101.904 161.326L101.903 161.305L101.903 161.284L101.903 161.263L101.903 161.242L101.902 161.221L101.902 161.2L101.902 161.18L101.902 161.159L101.902 161.138L101.901 161.117L101.901 161.096L101.901 161.075L101.901 161.055L101.9 161.034L101.9 161.013L101.9 160.993L101.9 160.972L101.899 160.951L101.899 160.931L101.899 160.91L101.899 160.89L101.899 160.869L101.898 160.848L101.898 160.828L101.898 160.807L101.898 160.787L101.897 160.766L101.897 160.746L101.897 160.726L101.897 160.705L101.896 160.685L101.896 160.664L101.896 160.644L101.896 160.624L101.895 160.603L101.895 160.583L101.895 160.563L101.895 160.543L101.895 160.522L101.894 160.502L101.894 160.482L101.894 160.462L101.894 160.442L101.893 160.421L101.893 160.401L101.893 160.381L101.893 160.361L101.893 160.341L101.892 160.321L101.892 160.301L101.892 160.281L101.892 160.261L101.891 160.241L101.891 160.221L101.891 160.201L101.891 160.181L101.89 160.161L101.89 160.141L101.89 160.121L101.89 160.101L101.89 160.081L101.889 160.061L101.889 160.041L101.889 160.021L101.889 160.001L101.888 159.981L101.888 159.962L101.888 159.942L101.888 159.922L101.888 159.902L101.887 159.882L101.887 159.862L101.887 159.843L101.887 159.823L101.886 159.803L101.886 159.783L101.886 159.764L101.886 159.744L101.886 159.724L101.885 159.704L101.885 159.685L101.885 159.665L101.885 159.645L101.884 159.625L101.884 159.606L101.884 159.586L101.884 159.566L101.884 159.547L101.883 159.527L101.883 159.507L101.883 159.488L101.883 159.468L101.882 159.448L101.882 159.429L101.882 159.409L101.882 159.39L101.882 159.37L101.881 159.35L101.881 159.331L101.881 159.311L101.881 159.292L101.88 159.272L101.88 159.252L101.88 159.233L101.88 159.213L101.88 159.194L101.879 159.174L101.879 159.155L101.879 159.135L101.879 159.115L101.878 159.096L101.878 159.076L101.878 159.057L101.878 159.037L101.878 159.018L101.877 158.998L101.877 158.978L101.877 158.959L101.877 158.939L101.876 158.92L101.876 158.9L101.876 158.881L101.876 158.861L101.876 158.842L101.875 158.822L101.875 158.803L101.875 158.783L101.875 158.763L101.874 158.744L101.874 158.724L101.874 158.705L101.874 158.685L101.874 158.666L101.873 158.646L101.873 158.626L101.873 158.607L101.873 158.587L101.872 158.568L101.872 158.548L101.872 158.529L101.872 158.509L101.872 158.489L101.871 158.47L101.871 158.45L101.871 158.431L101.871 158.411L101.87 158.391L101.87 158.372L101.87 158.352L101.87 158.333L101.87 158.313L101.869 158.293L101.869 158.274L101.869 158.254L101.869 158.234L101.868 158.215L101.868 158.195L101.868 158.175L101.868 158.156L101.868 158.136L101.867 158.116L101.867 158.097L101.867 158.077L101.867 158.057L101.866 158.037L101.866 158.018L101.866 157.998L101.866 157.978L101.865 157.958L101.865 157.939L101.865 157.919L101.865 157.899L101.865 157.879L101.864 157.859L101.864 157.84L101.864 157.82L101.864 157.8L101.863 157.78L101.863 157.76L101.863 157.74L101.863 157.72L101.863 157.7L101.862 157.681L101.862 157.661L101.862 157.641L101.862 157.621L101.861 157.601L101.861 157.581L101.861 157.561L101.861 157.541L101.861 157.521L101.86 157.501L101.86 157.481L101.86 157.461L101.86 157.441L101.859 157.42L101.859 157.4L101.859 157.38L101.859 157.36L101.858 157.34L101.858 157.32L101.858 157.3L101.858 157.279L101.858 157.259L101.857 157.239L101.857 157.219L101.857 157.199L101.857 157.178L101.856 157.158L101.856 157.138L101.856 157.117L101.856 157.097L101.855 157.077L101.855 157.056L101.855 157.036L101.855 157.015L101.855 156.995L101.854 156.974L101.854 156.954L101.854 156.933L101.854 156.913L101.853 156.892L101.853 156.872L101.853 156.851L101.853 156.831L101.852 156.81L101.852 156.789L101.852 156.769L101.852 156.748L101.852 156.727L101.851 156.707L101.851 156.686L101.851 156.665L101.851 156.644L101.85 156.624L101.85 156.603L101.85 156.582L101.85 156.561L101.849 156.54L101.849 156.519L101.849 156.498L101.849 156.477L101.848 156.456L101.848 156.435L101.848 156.414L101.848 156.393L101.848 156.372L101.847 156.351L101.847 156.33L101.847 156.309L101.847 156.287L101.846 156.266L101.846 156.245L101.846 156.224L101.846 156.202L101.845 156.181L101.845 156.16L101.845 156.138L101.845 156.117L101.844 156.096L101.844 156.074L101.844 156.053L101.844 156.031L101.843 156.01L101.843 155.988L101.843 155.966L101.843 155.945L101.842 155.923L101.842 155.901L101.842 155.88L101.842 155.858L101.841 155.836L101.841 155.814L101.841 155.793L101.841 155.771L101.84 155.749L101.84 155.727L101.84 155.705L101.84 155.683L101.839 155.661L101.839 155.639L101.839 155.617L101.839 155.595L101.838 155.572L101.838 155.55L101.838 155.528L101.838 155.506L101.837 155.484L101.837 155.461L101.837 155.439L101.837 155.417L101.836 155.394L101.836 155.372L101.836 155.349L101.836 155.327L101.835 155.304L101.835 155.282L101.835 155.259L101.835 155.236L101.834 155.214L101.834 155.191L101.834 155.168L101.834 155.145L101.833 155.123L101.833 155.1L101.833 155.077L101.833 155.054L101.832 155.031L101.832 155.008L101.832 154.985L101.832 154.962L101.831 154.939L101.831 154.915L101.831 154.892L101.83 154.869L101.83 154.846L101.83 154.822L101.83 154.799L101.829 154.776L101.829 154.752L101.829 154.729L101.829 154.705L101.828 154.682L101.828 154.658L101.828 154.635L101.828 154.611L101.827 154.587L101.827 154.563L101.827 154.54L101.826 154.516L101.826 154.492L101.826 154.468L101.826 154.444L101.825 154.42L101.825 154.396L101.825 154.372L101.825 154.348L101.824 154.324L101.824 154.299L101.824 154.275L101.823 154.251L101.823 154.227L101.823 154.202L101.823 154.178L101.822 154.153L101.822 154.129L101.822 154.104L101.822 154.08L101.821 154.055L101.821 154.03L101.821 154.005L101.82 153.981L101.82 153.956L101.82 153.931L101.82 153.906L101.819 153.881L101.819 153.856L101.819 153.831L101.818 153.806L101.818 153.781L101.818 153.755L101.818 153.73L101.817 153.705L101.817 153.68L101.817 153.654L101.816 153.629L101.816 153.603L101.816 153.578L101.816 153.552L101.815 153.526L101.815 153.501L101.815 153.475L101.814 153.449L101.814 153.423L101.814 153.397L101.813 153.372L101.813 153.346L101.813 153.319L101.808 152.926L101.416 152.964C70.1639 156.038 39.3415 155.563 8.04797 152.578Z" fill="#FA0863" stroke="black" stroke-width="0.722352"/>
<path d="M124.806 233.546L124.811 233.846L125.106 233.896C134.851 235.559 144.437 237.467 154.152 239.674L154.603 239.776L154.593 239.314L153.778 197.854C164.757 197.87 175.739 197.896 186.723 197.93C187.165 214.461 187.604 230.996 188.04 247.533L188.048 247.813L188.321 247.875C197.85 250.05 207.359 252.036 217.001 253.805L217.44 253.886L217.427 253.44L213.771 124.877L213.758 124.421L213.317 124.538C203.922 127.039 194.556 129.69 185.21 132.491L184.945 132.571L184.952 132.847C185.376 148.842 185.803 164.834 186.233 180.823C180.761 181.235 175.293 181.663 169.825 182.09L169.746 182.096C164.318 182.521 158.891 182.945 153.464 183.354L152.673 143.286L152.664 142.825L152.219 142.945C142.711 145.5 133.341 147.67 123.718 149.656L123.425 149.716L123.43 150.015L124.806 233.546Z" fill="#FA0863" stroke="black" stroke-width="0.722352"/>
<path d="M244.321 118.151L243.995 118.192L244.005 118.521L248.304 256.492L248.316 256.846L248.67 256.842C264.409 256.64 277.785 254.76 290.185 250.167C302.587 245.573 313.993 238.272 325.8 227.251L325.916 227.142L325.915 226.983L325.747 212.238L325.739 211.514L325.166 211.956C310.203 223.472 295.705 230.603 277.564 234.086C277.058 220.843 276.554 207.6 276.053 194.357C289.482 192.633 302.742 189.683 315.681 185.54L315.939 185.457L315.932 185.187C315.817 180.585 315.738 177.618 315.641 173.97C315.6 172.44 315.556 170.789 315.505 168.848L315.494 168.431L315.083 168.502C301.774 170.8 288.665 172.681 275.275 173.904L273.838 136.134C290.966 135.804 307.538 136.365 324.498 138.863L324.916 138.924L324.911 138.501L324.744 123.775L324.741 123.508L324.485 123.432C297.518 115.478 272.023 114.66 244.321 118.151Z" fill="#FA0863" stroke="black" stroke-width="0.722352"/>
<path d="M8.79277 375.228L8.79688 375.59L9.15916 375.585L18.0676 375.456L18.4266 375.45L18.4236 375.091C18.2806 358.304 18.114 341.517 17.924 324.731C21.8882 324.27 24.0134 324.004 27.9106 323.514C28.0519 340.656 28.1991 357.801 28.3522 374.949L28.3554 375.311L28.7174 375.307L37.653 375.205L38.013 375.201L38.0101 374.841C37.6884 334.386 37.3697 293.937 37.0541 253.494L37.0504 253.022L36.5956 253.15C33.6328 253.979 31.866 254.464 29.3445 255.156C28.8039 255.305 28.2286 255.463 27.5993 255.635L27.3315 255.709L27.3339 255.987L27.7657 305.817C26.3982 306.034 25.2503 306.219 24.1722 306.393C22.1316 306.722 20.3407 307.011 17.7823 307.395C17.6454 291.195 17.4851 274.989 17.3012 258.777L17.2961 258.321L16.8533 258.43C13.2385 259.325 11.4242 259.748 7.78232 260.521L7.49276 260.582L7.49612 260.878L8.79277 375.228Z" fill="white" stroke="black" stroke-width="0.722352"/>
<path d="M53.4776 374.96L53.8131 374.957L53.834 374.622C54.407 365.421 54.9859 356.224 55.5707 347.029C55.9396 347.004 56.2909 346.98 56.6282 346.958C59.5139 346.763 61.3798 346.636 64.5233 346.446C65.2173 355.782 65.9054 365.102 66.5874 374.407L66.6122 374.746L66.9517 374.742L76.0482 374.639L76.4347 374.634L76.4041 374.249C73.0179 331.5 69.5334 288.758 65.9507 246.024L65.9164 245.615L65.5153 245.701C60.6416 246.743 58.2124 247.335 53.3792 248.583L53.1274 248.648L53.1092 248.908C50.1652 290.87 47.1881 332.793 44.1777 374.675L44.1495 375.066L44.542 375.062L53.4776 374.96ZM56.6766 327.812C57.6678 311.857 58.6566 295.896 59.6429 279.93C60.8364 295.682 62.0181 311.433 63.1879 327.185C60.6077 327.427 59.197 327.564 56.6766 327.812Z" fill="white" stroke="black" stroke-width="0.722352"/>
<path d="M81.6966 345.025L81.6966 345.026C81.7237 354.266 83.0391 361.777 85.6645 367.537C88.2827 373.296 91.7452 376.301 96.1119 376.251C100.476 376.202 103.958 373.084 106.605 367.279C109.258 361.461 110.643 353.928 110.727 344.679C110.757 341.341 110.781 338.745 110.805 336.221C110.834 333.108 110.862 330.106 110.899 325.958L110.902 325.605L110.549 325.594C107.007 325.484 105.136 325.43 101.556 325.405L101.194 325.402L101.193 325.765C101.177 329.771 101.163 332.708 101.15 335.703C101.138 338.358 101.126 341.058 101.111 344.587L101.111 344.587L101.111 344.6C101.205 347.638 100.707 350.664 99.649 353.492C98.693 355.707 97.5377 356.672 96.2222 356.687C94.9207 356.697 93.7723 355.765 92.8316 353.586C91.788 350.767 91.3085 347.752 91.4235 344.73L91.4237 344.73L91.4237 344.716C91.4279 320.384 91.4349 296.053 91.445 271.721L91.4453 271.721L91.4448 271.707C91.3316 268.649 91.8327 265.601 92.915 262.763C93.8876 260.521 95.0965 259.513 96.4613 259.489C97.8191 259.466 99.0229 260.438 99.9931 262.648C101.076 265.474 101.569 268.512 101.436 271.555L101.436 271.555L101.436 271.569C101.422 274.658 101.413 276.975 101.403 279.291C101.394 281.607 101.384 283.924 101.37 287.012L101.368 287.369L101.725 287.375C105.363 287.437 107.288 287.555 110.864 287.787L111.245 287.811L111.248 287.43L111.387 272.08C111.47 262.831 110.201 255.098 107.422 249.111C104.651 243.143 101.035 239.892 96.406 239.965C91.7791 240.037 88.1948 243.443 85.5164 249.432C82.8302 255.438 81.5107 263.187 81.5349 272.436C81.5349 272.436 81.5349 272.436 81.5349 272.436L81.6966 345.025Z" fill="white" stroke="black" stroke-width="0.722352"/>
<path d="M140.468 247.439C136.44 263.058 132.478 278.687 128.582 294.327C128.779 277.998 128.984 261.666 129.197 245.332L129.201 245.023L128.896 244.971C125.248 244.355 123.417 244.074 119.753 243.58L119.347 243.526L119.343 243.934L117.947 373.822L117.943 374.191L118.313 374.187L127.248 374.086L127.601 374.082L127.605 373.729C127.751 360.837 127.902 347.949 128.059 335.064C129.332 330.084 130.034 327.337 131.197 322.863C133.979 339.81 136.772 356.755 139.577 373.696L139.627 374.002L139.937 373.998L149.543 373.889L149.967 373.885L149.895 373.467C145.716 349.227 141.572 324.977 137.464 300.718C141.852 283.685 146.329 266.679 150.895 249.699L150.993 249.335L150.625 249.253C146.735 248.386 144.789 247.967 140.89 247.175L140.554 247.107L140.468 247.439Z" fill="white" stroke="black" stroke-width="0.722352"/>
<path d="M162.287 373.802L162.614 373.798L162.643 373.473C163.419 364.711 164.202 355.95 164.991 347.188L173.932 347.619C174.236 352.991 174.463 356.979 174.695 361.045C174.905 364.739 175.119 368.498 175.398 373.421L175.418 373.766L175.763 373.762L184.859 373.659L185.241 373.654L185.216 373.274C182.61 334.159 180.045 295.034 177.522 255.899L177.505 255.634L177.246 255.572L165.22 252.685L164.818 252.589L164.776 253C160.751 293.168 156.822 333.337 152.988 373.508L152.949 373.908L153.351 373.903L162.287 373.802ZM166.528 329.079C167.861 314.34 169.197 299.608 170.535 284.883C171.355 299.795 172.181 314.71 173.015 329.626L166.528 329.079Z" fill="white" stroke="black" stroke-width="0.722352"/>
<path d="M187.562 257.969L187.131 257.872L187.122 258.314L186.79 274.764L186.784 275.067L187.082 275.126C190.903 275.878 192.865 276.26 196.591 276.941L194.743 373.202L194.736 373.575L195.108 373.571L204.044 373.469L204.394 373.465L204.401 373.115C205.028 341.611 205.653 310.107 206.274 278.603C206.803 278.686 207.296 278.764 207.763 278.838C210.561 279.28 212.467 279.581 215.719 280.033L216.122 280.089L216.13 279.683C216.193 276.571 216.242 274.237 216.292 271.904L216.292 271.902C216.341 269.569 216.391 267.236 216.454 264.125L216.46 263.816L216.156 263.762C206.554 262.041 197.091 260.103 187.562 257.969Z" fill="white" stroke="black" stroke-width="0.722352"/>
<path d="M220.38 372.948L220.372 373.32L220.744 373.317L229.716 373.243L230.066 373.24L230.074 372.89C230.42 357.525 230.763 342.158 231.103 326.787C235.018 326.931 237.139 326.99 241.063 327.042L240.519 349.72L239.968 372.762L239.959 373.136L240.333 373.132L249.268 373.031L249.617 373.027L249.625 372.679C250.513 337.51 251.407 302.339 252.307 267.164L252.317 266.791L251.943 266.794C248.304 266.826 246.496 266.79 242.871 266.634L242.503 266.619L242.495 266.987C242.148 281.727 241.795 296.465 241.436 311.2C237.476 311.114 235.352 311.035 231.429 310.823C231.763 295.96 232.093 281.097 232.422 266.234L232.429 265.899L232.095 265.866C228.459 265.514 226.674 265.3 223.098 264.806L222.696 264.751L222.688 265.156C221.934 301.087 221.164 337.017 220.38 372.948Z" fill="white" stroke="black" stroke-width="0.722352"/>
<path d="M262.035 367.154L262.036 367.155C264.598 371.881 267.993 374.311 272.463 374.26C276.927 374.21 280.576 371.679 283.413 366.682C286.247 361.691 287.779 355.086 288.047 347.041L288.047 347.041L290.044 286.678L290.044 286.677C290.302 278.646 289.244 272.56 286.699 268.314C285.654 266.354 284.036 264.793 282.08 263.867C280.123 262.941 277.934 262.699 275.837 263.178C271.296 263.966 267.585 266.813 264.708 271.831C261.83 276.848 260.31 283.133 260.101 290.827L258.53 348.537C258.294 356.23 259.485 362.415 262.035 367.154ZM276.732 355.512L276.732 355.512L276.729 355.519C276.391 356.288 275.862 356.943 275.199 357.417C274.538 357.889 273.769 358.164 272.973 358.213C272.227 358.239 271.489 358.028 270.856 357.604C270.222 357.179 269.722 356.559 269.427 355.826L269.421 355.812L269.414 355.799C268.548 354.075 268.144 351.577 268.239 348.25C268.812 328.9 269.382 309.521 269.948 290.115L269.948 290.107L269.948 290.099C269.909 287.404 270.48 284.74 271.612 282.325L271.612 282.325L271.614 282.319C271.978 281.509 272.523 280.805 273.2 280.266C273.877 279.727 274.666 279.37 275.501 279.223L275.501 279.223L275.508 279.221C276.219 279.081 276.955 279.189 277.603 279.531C278.253 279.873 278.78 280.432 279.103 281.124L279.108 281.135L279.114 281.147C279.997 282.739 280.403 285.208 280.291 288.587L280.291 288.587L278.396 347.692L278.396 347.7L278.396 347.708C278.431 350.412 277.86 353.085 276.732 355.512Z" fill="white" stroke="black" stroke-width="0.722352"/>
<path d="M298.839 257.422L298.653 257.521L298.647 257.731C297.607 295.824 296.576 333.907 295.554 371.981L295.544 372.359L295.923 372.352L304.67 372.177L305.017 372.17L305.024 371.823C305.452 348.062 305.882 324.295 306.316 300.523C309.453 324.258 312.705 347.97 316.072 371.659L316.117 371.976L316.438 371.969L325.837 371.759L326.194 371.751L326.19 371.394L324.678 238.038L324.668 237.202L324.066 237.781C321.259 240.485 319.857 241.764 317.002 244.281L316.88 244.389L316.88 244.552C316.842 271.09 316.806 297.626 316.773 324.16C313.759 300.177 310.87 276.182 308.107 252.175L308.035 251.553L307.532 251.927C304.768 253.982 301.862 255.819 298.839 257.422Z" fill="white" stroke="black" stroke-width="0.722352"/>
</g>
<defs>
<filter id="filter0_d_137_221" x="0.902272" y="0.927909" width="332.102" height="382.668" filterUnits="userSpaceOnUse" color-interpolation-filters="sRGB">
<feFlood flood-opacity="0" result="BackgroundImageFix"/>
<feColorMatrix in="SourceAlpha" type="matrix" values="0 0 0 0 0 0 0 0 0 0 0 0 0 0 0 0 0 0 127 0" result="hardAlpha"/>
<feOffset dy="0.963136"/>
<feGaussianBlur stdDeviation="3.0098"/>
<feComposite in2="hardAlpha" operator="out"/>
<feColorMatrix type="matrix" values="0 0 0 0 0 0 0 0 0 0.836735 0 0 0 0 1 0 0 0 0.43 0"/>
<feBlend mode="normal" in2="BackgroundImageFix" result="effect1_dropShadow_137_221"/>
<feBlend mode="normal" in="SourceGraphic" in2="effect1_dropShadow_137_221" result="shape"/>
</filter>
</defs>
</svg>
